# xmcd CD database file
#
# Track frame offsets:
#	150
#	16407
#	29720
#	44450
#	57840
#	69280
#	84830
#	103070
#	114860
#	128490
#	141760
#	160932
#	173270
#	186567
#	196592
#	208832
#	224640
#	237287
#
# Disc length: 3377 seconds
#
# Revision: 2
# Processed by: cddbd v1.5.2PL0 Copyright (c) Steve Scherf et al.
# Submitted via: CDex 1.70beta2
#
DISCID=f60d2f12
DTITLE=Various Artist - The 70's Box [CD2-4)
DYEAR=1996
DGENRE=Oldies
TTITLE0=Mungo Jerry - In The Summertime
TTITLE1=Mud  - Dynamite
TTITLE2=George McCrae - Rock Your Baby
TTITLE3=The Rubettes - Jukebox Jive
TTITLE4=Hot Butter - Popcorn
TTITLE5=Tina Charles - Dance Little Lady Dance
TTITLE6=KC and The Sunshine Band - Im Your Boogie Man
TTITLE7=The Brotherhood of Man - My Sweet Rosalie
TTITLE8=The New Seekers - Pinball Wizard
TTITLE9=Lynn Anderson - Rose Garden
TTITLE10=Chuck Berry - My ding a ling
TTITLE11=Hank Mizell - Jungle Rock
TTITLE12=Daniel Boone - Beautiful Sunday
TTITLE13=Badfinger - Come and get it
TTITLE14=Billie Jo Spears - What I´ve got in mind
TTITLE15=Redbone - Witch Queen of New Orleans
TTITLE16=Showdaddywaddy - When
TTITLE17=Rare Earth feat. Peter Rivera - I know I´m losing you 
EXTD=YEAR: 1996
EXTT0=
EXTT1=
EXTT2=
EXTT3=
EXTT4=
EXTT5=
EXTT6=
EXTT7=
EXTT8=
EXTT9=
EXTT10=
EXTT11=
EXTT12=
EXTT13=
EXTT14=
EXTT15=
EXTT16=
EXTT17=
PLAYORDER=
